<svg width="15" height="15" viewBox="0 0 15 15" fill="none" xmlns="http://www.w3.org/2000/svg">
<path fill-rule="evenodd" clip-rule="evenodd" d="M15 4.6875C15 2.5125 13.2375 0.75 11.0625 0.75C10.2975 0.75 9.6 0.9825 9 1.365V1.335C8.9325 1.38 8.8725 1.425 8.805 1.4775C8.775 1.5 8.7375 1.5225 8.7 1.5525C8.19 1.935 7.77 2.4375 7.5 3.0225C7.2 2.3775 6.72 1.845 6.15 1.4475C6.12 1.4325 6.0975 1.41 6.075 1.3875C5.9325 1.2975 5.775 1.215 5.625 1.14C5.5275 1.11 5.4525 1.065 5.3625 1.0275C5.325 1.0125 5.2875 0.99 5.25 0.975V0.99C4.8375 0.8475 4.4025 0.75 3.9375 0.75C1.7625 0.75 0 2.5125 0 4.6875C0 4.755 0.0075 4.815 0.0075 4.875H0C0 4.92 0.0075 4.965 0.015 5.01C0.0225 5.055 0.0225 5.1 0.03 5.145C0.0975 5.9175 0.33 6.75 0.8025 7.6275C1.6725 9.2475 3.075 10.5825 5.25 12.3975V12.405C5.925 12.9675 6.6675 13.5675 7.5 14.25C8.0325 13.815 8.535 13.41 9 13.0275C11.61 10.8825 13.23 9.4425 14.1975 7.6425C14.67 6.765 14.9025 5.94 14.97 5.1675C14.9775 5.115 14.9775 5.0625 14.985 5.01C14.985 4.965 14.9925 4.9275 15 4.8825H14.9925C14.9925 4.815 15 4.755 15 4.6875Z" fill="white"/>
</svg>
